<?xml version="1.0" encoding="utf-8"?>
<!-- Generator: Adobe Illustrator 16.0.0, SVG Export Plug-In . SVG Version: 6.00 Build 0)  -->
<!DOCTYPE svg PUBLIC "-//W3C//DTD SVG 1.1//EN" "http://www.w3.org/Graphics/SVG/1.1/DTD/svg11.dtd">
<svg version="1.1" id="Capa_1" xmlns="http://www.w3.org/2000/svg" xmlns:xlink="http://www.w3.org/1999/xlink" x="0px" y="0px"
	 width="512px" height="512px" viewBox="0 0 512 512" enable-background="new 0 0 512 512" xml:space="preserve">
<g opacity="0.4">
	<g>
		<path fill="#2C3E50" d="M474.903,220.128l-125.439-43.05c-0.667-1.665-1.43-3.29-2.301-4.867
			c3.615-10.325,5.444-20.934,5.444-31.602C352.607,87.858,309.758,44,256,44c-53.27,0-96.608,43.339-96.608,96.609
			c0,10.668,1.83,21.28,5.447,31.606c-0.829,1.5-1.562,3.042-2.207,4.616l-125.547,43.3c-3.578,1.235-5.919,4.626-5.919,8.303
			v210.783c0,4.818,3.924,8.761,8.749,8.78c0.014,0,0.028,0.003,0.042,0.003c0.004,0,0.008-0.001,0.012-0.01H216.48
			c4.851,0.009,8.782-3.926,8.782-8.773c0-4.85-3.932-8.783-8.782-8.783H69.559c0.1-0.064,186.351-121.205,186.441-121.262
			l186.441,121.263h-146.92c-4.852,0-8.782,3.935-8.782,8.783c0,4.85,3.932,8.782,8.782,8.782h176.53
			c0.021,0,0.041-0.002,0.063-0.003c4.902-0.042,8.719-4.028,8.719-8.779V228.435C480.835,224.745,478.484,221.356,474.903,220.128z
			 M463.27,423.028l-121.271-78.876l121.271-97.399V423.028z M255.521,61.57l-7.854,23.566c-1.051,3.156-0.23,6.634,2.122,8.986
			l8.949,8.949l-24.231,12.116c-4.339,2.169-6.097,7.445-3.927,11.783c2.169,4.338,7.445,6.097,11.783,3.928l35.131-17.565
			c2.525-1.263,4.288-3.662,4.74-6.449c0.453-2.787-0.463-5.62-2.459-7.618l-13.727-13.727l7.35-22.055
			c35.604,8.002,61.646,39.971,61.646,77.125c0,9.882-1.94,19.741-5.772,29.299c-1.104,2.758-0.74,5.886,0.969,8.316
			c3.147,4.481,4.805,9.727,4.805,15.081c0,14.528-11.818,26.348-26.348,26.348c-4.852,0-8.782,3.933-8.782,8.783v26.348H282.35
			v-26.348c0-4.85-3.932-8.783-8.781-8.783c-4.853,0-8.783,3.933-8.783,8.783v26.348H247.22v-26.348c0-4.85-3.932-8.783-8.783-8.783
			s-8.782,3.933-8.782,8.783v26.348H212.09v-26.348c0-4.85-3.932-8.783-8.783-8.783c-14.528,0-26.348-11.82-26.348-26.348
			c0-5.571,1.746-10.706,4.815-15.095c1.7-2.43,2.06-5.551,0.957-8.302c-3.83-9.559-5.772-19.417-5.772-29.299
			C176.957,97.184,212.156,61.831,255.521,61.57L255.521,61.57z M48.73,246.753l121.264,97.399L48.73,423.028V246.753z
			 M251.212,291.334l-65.719,42.738L57.851,231.549l101.664-35.064c1.423,19.779,15.998,35.975,35.006,39.849v27.23
			c0,4.851,3.932,8.783,8.783,8.783h105.393c4.85,0,8.782-3.934,8.782-8.783v-27.229c18.945-3.861,33.486-19.964,34.992-39.653
			l101.654,34.887L326.499,334.072l-65.711-42.738C257.877,289.439,254.124,289.439,251.212,291.334z"/>
		<path fill="#2C3E50" d="M220.87,202.087c14.528,0,26.348-11.819,26.348-26.348c0-14.529-11.819-26.348-26.348-26.348
			c-14.529,0-26.348,11.819-26.348,26.348C194.522,190.268,206.341,202.087,220.87,202.087z M220.87,166.957
			c4.843,0,8.783,3.94,8.783,8.783c0,4.843-3.94,8.783-8.783,8.783c-4.843,0-8.783-3.94-8.783-8.783
			C212.087,170.897,216.027,166.957,220.87,166.957z"/>
		<path fill="#2C3E50" d="M291.131,202.087c14.527,0,26.348-11.819,26.348-26.348c0-14.529-11.819-26.348-26.348-26.348
			c-14.527,0-26.349,11.819-26.349,26.348C264.782,190.268,276.604,202.087,291.131,202.087z M291.131,166.957
			c4.842,0,8.782,3.94,8.782,8.783c0,4.843-3.94,8.783-8.782,8.783c-4.843,0-8.783-3.94-8.783-8.783
			C282.348,170.897,286.288,166.957,291.131,166.957z"/>
		<circle fill="#2C3E50" cx="256" cy="439.217" r="8.783"/>
	</g>
</g>
</svg>
