<?xml version="1.0" encoding="utf-8"?>
<!-- Generator: Adobe Illustrator 16.0.0, SVG Export Plug-In . SVG Version: 6.00 Build 0)  -->
<!DOCTYPE svg PUBLIC "-//W3C//DTD SVG 1.1//EN" "http://www.w3.org/Graphics/SVG/1.1/DTD/svg11.dtd">
<svg version="1.1" id="Capa_1" xmlns="http://www.w3.org/2000/svg" xmlns:xlink="http://www.w3.org/1999/xlink" x="0px" y="0px"
	 width="512px" height="512px" viewBox="0 0 512 512" enable-background="new 0 0 512 512" xml:space="preserve">
<g opacity="0.2">
	<g>
		<path fill="#FFFFFF" d="M369.756,179.074c3.636-8.497,5.541-17.709,5.541-26.964v-8.106c0-13.435,5.234-26.067,14.733-35.569
			c3.548-3.546,3.548-9.297,0-12.843c-3.547-3.547-9.296-3.547-12.844,0c-12.931,12.931-20.054,30.124-20.054,48.412v8.106
			c0,4.287-0.567,8.558-1.647,12.697l-32.13-32.126c-3.546-3.546-9.295-3.546-12.845,0l-35.48,35.481
			c-59.325-22.851-129.239-10.399-177.013,37.373c-31.308,31.308-48.55,72.934-48.55,117.211c0,44.276,17.242,85.902,48.55,117.213
			c26.636,26.635,60.448,43.029,97.78,47.41c6.397,0.751,12.817,1.122,19.23,1.122c29.883,0,59.543-8.063,85.163-23.376
			c4.306-2.574,5.709-8.15,3.136-12.456c-2.574-4.305-8.149-5.709-12.455-3.135c-58.079,34.714-132.101,25.498-180.01-22.409
			c-27.877-27.877-43.23-64.943-43.23-104.368c0-39.426,15.353-76.49,43.23-104.368c56.815-56.815,151.948-56.783,208.734,0.005
			c46.689,46.647,56.516,121.144,23.428,178.27c-2.514,4.34-1.033,9.896,3.307,12.411c4.341,2.514,9.896,1.033,12.412-3.307
			c25.722-44.407,28.751-97.016,11.072-142.804l35.491-35.492c1.703-1.703,2.66-4.014,2.66-6.423s-0.957-4.719-2.661-6.422
			L369.756,179.074z M361.815,245.263c-7.711-14.598-17.701-28.055-29.374-39.727c-11.677-11.675-25.123-21.653-39.725-29.372
			l24.217-24.218l69.104,69.094L361.815,245.263z"/>
		<path fill="#FFFFFF" d="M435.384,50.239c-3.547-3.546-9.296-3.546-12.845,0l-19.016,19.016c-3.547,3.546-3.547,9.297,0,12.843
			c1.773,1.774,4.099,2.66,6.422,2.66c2.324,0,4.647-0.888,6.421-2.66l19.016-19.015C438.931,59.536,438.931,53.786,435.384,50.239z
			"/>
		<path fill="#FFFFFF" d="M364.121,60.533c0.674,4.504,4.548,7.738,8.971,7.738c0.446,0,0.9-0.034,1.356-0.102
			c4.96-0.743,8.38-5.366,7.636-10.327L378.1,31.247c-0.742-4.96-5.371-8.38-10.327-7.636c-4.96,0.742-8.38,5.366-7.636,10.327
			L364.121,60.533z"/>
		<path fill="#FFFFFF" d="M454.794,107.941l-26.595-3.985c-4.954-0.739-9.584,2.676-10.328,7.637
			c-0.742,4.96,2.677,9.583,7.637,10.327l26.596,3.984c0.456,0.068,0.909,0.102,1.356,0.102c4.42,0,8.295-3.234,8.97-7.738
			C463.174,113.308,459.754,108.685,454.794,107.941z"/>
		<path fill="#FFFFFF" d="M201.879,300.103c-1.903-4.568-7.281-6.81-11.861-4.913c-4.579,1.895-6.79,7.296-4.904,11.861
			c1.891,4.575,7.278,6.803,11.853,4.913C201.535,310.077,203.782,304.671,201.879,300.103L201.879,300.103z"/>
		<path fill="#FFFFFF" d="M245.346,300.103c-1.489-3.572-5.176-5.869-9.046-5.58c-3.797,0.284-7.056,2.975-8.079,6.637
			c-2.195,7.861,6.774,14.418,13.617,10.079C245.527,308.9,246.996,304.127,245.346,300.103z"/>
		<path fill="#FFFFFF" d="M303.554,269.498h0.032c5.001,0,9.063-4.048,9.081-9.053c0.018-5.015-4.035-9.095-9.052-9.112
			c-9.294-0.032-16.897-7.618-16.951-16.911c-0.028-4.998-4.089-9.03-9.081-9.03c-0.018,0-0.035,0-0.053,0
			c-5.017,0.029-9.06,4.118-9.03,9.134c0.037,6.334,1.777,12.28,4.772,17.415l-10.137,10.137
			c-13.37-12.888-30.953-19.754-49.554-19.313c-17.268,0.403-33.586,7.255-46.115,19.296l-10.221-10.222
			c2.958-5.112,4.678-11.021,4.714-17.314c0.028-5.015-4.015-9.105-9.03-9.134c-4.999-0.048-9.105,4.014-9.133,9.03
			c-0.054,9.293-7.658,16.88-16.952,16.911c-5.015,0.018-9.068,4.098-9.051,9.112c0.017,5.006,4.08,9.053,9.082,9.053h0.031
			c6.375-0.022,12.359-1.771,17.523-4.787l11.614,11.614c-6.091,10.087-9.516,21.582-9.844,33.545
			c-0.491,17.896,6.054,35.359,18.068,48.515v2.562l-19.838,19.838c-5.163-3.018-11.148-4.765-17.523-4.786c-0.01,0-0.021,0-0.031,0
			c-5.001,0-9.065,4.046-9.082,9.051c-0.017,5.016,4.036,9.096,9.051,9.112c9.293,0.031,16.898,7.618,16.952,16.912
			c0.028,4.998,4.088,9.03,9.081,9.03h0.053c5.016-0.03,9.058-4.119,9.03-9.135c-0.037-6.292-1.755-12.2-4.713-17.312l10.318-10.318
			c3.611,5.507,9.834,9.154,16.898,9.154h61.535c7.105,0,13.36-3.691,16.961-9.253l10.313,10.314
			c-2.995,5.135-4.736,11.079-4.772,17.415c-0.029,5.016,4.014,9.104,9.03,9.134h0.053c4.992,0,9.053-4.033,9.081-9.03
			c0.053-9.135,7.796-16.88,16.951-16.912c5.017-0.017,9.068-4.097,9.052-9.112c-0.018-5.016-4.12-9.076-9.113-9.052
			c-6.333,0.021-12.28,1.748-17.422,4.729l-19.938-19.939v-2.395c11.697-12.757,18.095-29.154,18.095-46.588
			c0-12.703-3.4-24.844-9.757-35.435l11.602-11.603C291.274,267.75,297.222,269.475,303.554,269.498L303.554,269.498z
			 M248.029,372.296c0,1.12-0.911,2.031-2.031,2.031h-21.685v-15.842c0-5.016-4.066-9.082-9.083-9.082
			c-5.016,0-9.082,4.066-9.082,9.082v15.842h-21.685c-1.12,0-2.031-0.911-2.031-2.031v-17.579c0-2.446-0.987-4.789-2.738-6.499
			c-10.285-10.038-15.731-23.479-15.337-37.849c0.743-27.08,23.803-49.46,50.881-49.46c27.742,0,50.888,23.14,50.888,50.895
			c0,13.816-5.453,26.749-15.357,36.415c-1.75,1.71-2.738,4.053-2.738,6.499v17.578H248.029z"/>
		<path fill="#FFFFFF" d="M332.316,424.717c-6.862-4.572-15.977,2.054-13.788,9.968c1.032,3.73,4.433,6.467,8.303,6.651
			c3.879,0.187,7.507-2.187,8.908-5.803C337.246,431.644,335.827,427.015,332.316,424.717z"/>
	</g>
</g>
</svg>
