<?xml version="1.0" encoding="utf-8"?>
<!-- Generator: Adobe Illustrator 16.0.0, SVG Export Plug-In . SVG Version: 6.00 Build 0)  -->
<!DOCTYPE svg PUBLIC "-//W3C//DTD SVG 1.1//EN" "http://www.w3.org/Graphics/SVG/1.1/DTD/svg11.dtd">
<svg version="1.1" id="Outline" xmlns="http://www.w3.org/2000/svg" xmlns:xlink="http://www.w3.org/1999/xlink" x="0px" y="0px"
	 width="512px" height="512px" viewBox="0 0 512 512" enable-background="new 0 0 512 512" xml:space="preserve">
<g opacity="0.4">
	<circle fill="#2C3E50" cx="129.655" cy="89.269" r="7.535"/>
	<path fill="#2C3E50" d="M167.903,85.649l50.514-15.171c3.984-1.197,6.245-5.398,5.049-9.383c-1.197-3.985-5.398-6.246-9.384-5.049
		l-50.513,15.171c-3.985,1.196-6.246,5.398-5.048,9.383C159.717,84.585,163.918,86.846,167.903,85.649z"/>
	<path fill="#2C3E50" d="M414.83,436.31l50.513-15.171c3.985-1.197,6.246-5.399,5.05-9.385l-52.017-173.187
		c-1.784-5.919-4.992-11.312-9.344-15.704l-83.604-84.22l-29.801-99.222c-6.005-19.911-26.993-31.204-46.917-25.244L75.522,66.192
		c-19.911,6.005-31.204,26.993-25.245,46.917l108.366,360.807c6.005,19.911,26.993,31.204,46.917,25.245l202.052-60.686
		L414.83,436.31z M403.943,242.902l49.85,165.971l-43.298,13.004c-35.332,10.568-72.638-9.002-84.027-44.077
		c-0.201-1.986-1.183-3.811-2.729-5.074l-67.617-55.217c-9.669-7.896-11.107-22.135-3.211-31.804
		c7.897-9.67,22.135-11.107,31.806-3.211c0.061,0.05,0.127,0.097,0.186,0.148l59.641,45.648c1.921,1.469,4.43,1.926,6.745,1.229
		l21.648-6.502c3.985-1.197,6.246-5.399,5.048-9.384l-43.346-144.323l63.698,64.167
		C400.949,236.114,402.873,239.349,403.943,242.902z M311.537,144.782l49.848,165.972l-10.743,3.227l-56.492-43.242
		c-16.138-13.134-39.866-10.699-53,5.439c-13.133,16.138-10.699,39.865,5.439,52.999l56.632,46.249L157.905,419.07L75.547,144.856
		l216.484-65.02L311.537,144.782z M79.857,80.625l173.188-52.015c11.955-3.576,24.547,3.201,28.151,15.146l6.501,21.648
		l-216.484,65.02l-6.501-21.649C61.135,96.821,67.911,84.228,79.857,80.625z M201.227,484.729
		c-11.954,3.575-24.548-3.201-28.15-15.146l-10.836-36.081l151.885-45.617c9.11,22.586,27.693,40.021,50.813,47.676L201.227,484.729
		z"/>
	<path fill="#2C3E50" d="M272.649,408.209c-11.957,3.59-18.738,16.193-15.146,28.149c3.591,11.957,16.194,18.738,28.149,15.147
		c11.957-3.592,18.737-16.195,15.146-28.15C297.196,411.408,284.604,404.633,272.649,408.209z M281.319,437.073
		c-3.985,1.196-8.188-1.064-9.385-5.049c-1.196-3.985,1.064-8.187,5.049-9.384c3.986-1.197,8.188,1.063,9.384,5.049
		C287.56,431.674,285.301,435.872,281.319,437.073z"/>
	<path fill="#2C3E50" d="M123.203,224.948l173.188-52.016c3.985-1.197,6.246-5.398,5.049-9.384l-17.338-57.729
		c-1.197-3.985-5.398-6.246-9.385-5.048L101.53,152.787c-3.985,1.196-6.246,5.398-5.048,9.383l17.338,57.729
		C115.017,223.884,119.218,226.145,123.203,224.948z M113.081,165.051l158.755-47.681l13.004,43.297l-158.755,47.681
		L113.081,165.051z"/>
	<path fill="#2C3E50" d="M196.793,155.643l-57.729,17.338c-3.985,1.197-6.246,5.398-5.049,9.384
		c1.197,3.985,5.399,6.246,9.384,5.049l57.729-17.338c3.985-1.197,6.245-5.398,5.048-9.384
		C204.979,156.707,200.778,154.446,196.793,155.643z"/>
	<path fill="#2C3E50" d="M131.872,253.812l101.026-30.342c3.985-1.197,6.246-5.399,5.049-9.384
		c-1.197-3.985-5.398-6.246-9.383-5.049L127.538,239.38c-3.985,1.197-6.246,5.398-5.048,9.383
		C123.686,252.749,127.887,255.01,131.872,253.812z"/>
	<path fill="#2C3E50" d="M237.233,237.902l-43.297,13.004c-3.985,1.197-6.246,5.398-5.049,9.384
		c1.197,3.985,5.398,6.246,9.384,5.048l43.297-13.003c3.985-1.196,6.246-5.398,5.049-9.384
		C245.42,238.966,241.218,236.706,237.233,237.902z"/>
	<path fill="#2C3E50" d="M149.21,311.542l43.297-13.005c3.985-1.196,6.246-5.397,5.049-9.383s-5.398-6.246-9.384-5.049
		l-43.297,13.004c-3.984,1.197-6.245,5.398-5.049,9.383C141.024,310.478,145.226,312.738,149.21,311.542z"/>
	<path fill="#2C3E50" d="M157.88,340.406l43.297-13.004c3.985-1.197,6.246-5.398,5.049-9.384c-1.197-3.985-5.399-6.245-9.383-5.048
		l-43.297,13.003c-3.985,1.197-6.246,5.399-5.048,9.384C149.693,339.342,153.895,341.604,157.88,340.406z"/>
	<circle fill="#2C3E50" cx="173.051" cy="390.92" r="7.534"/>
	<circle fill="#2C3E50" cx="201.916" cy="382.25" r="7.534"/>
	<circle fill="#2C3E50" cx="230.781" cy="373.581" r="7.535"/>
	<path fill="#2C3E50" d="M166.55,369.271l57.729-17.338c3.985-1.197,6.246-5.398,5.048-9.384c-1.196-3.984-5.398-6.245-9.383-5.049
		l-57.729,17.338c-3.985,1.198-6.246,5.399-5.049,9.385C158.363,368.207,162.564,370.468,166.55,369.271z"/>
	<path fill="#2C3E50" d="M300.726,187.364l-43.297,13.004c-3.985,1.197-6.246,5.399-5.049,9.384l8.669,28.865
		c1.197,3.985,5.398,6.246,9.384,5.048l43.297-13.004c3.985-1.197,6.245-5.398,5.049-9.383l-8.669-28.865
		C308.911,188.428,304.71,186.167,300.726,187.364z M302.179,218.396l-28.865,8.669l-4.334-14.432l28.864-8.669L302.179,218.396z"/>
	<path fill="#2C3E50" d="M140.542,282.678l28.865-8.67c3.985-1.196,6.246-5.398,5.049-9.383c-1.197-3.985-5.398-6.246-9.383-5.049
		l-28.865,8.668c-3.985,1.197-6.246,5.398-5.049,9.384S136.557,283.874,140.542,282.678z"/>
</g>
</svg>
