<?xml version="1.0" encoding="utf-8"?>
<!-- Generator: Adobe Illustrator 16.0.0, SVG Export Plug-In . SVG Version: 6.00 Build 0)  -->
<!DOCTYPE svg PUBLIC "-//W3C//DTD SVG 1.1//EN" "http://www.w3.org/Graphics/SVG/1.1/DTD/svg11.dtd">
<svg version="1.1" id="Capa_1" xmlns="http://www.w3.org/2000/svg" xmlns:xlink="http://www.w3.org/1999/xlink" x="0px" y="0px"
	 width="512px" height="512px" viewBox="0 0 512 512" enable-background="new 0 0 512 512" xml:space="preserve">
<g opacity="0.5">
	<path fill="#2C3E50" d="M455.273,335.999h-0.003c0-24.009-6.897-47.288-19.947-67.317c-12.009-18.434-28.616-33.271-48.188-43.096
		v-12.45c0-19.013-15.469-34.481-34.481-34.481h-6.548v-8.329c4.653-2.334,8.896-5.384,12.636-9.125
		c9.25-9.25,14.345-21.549,14.345-34.629s-5.095-25.379-14.345-34.629l-25.097-25.098c-9.252-9.25-21.55-14.345-34.631-14.345
		c-13.082,0-25.379,5.095-34.628,14.344c-2.277,2.276-4.309,4.752-6.072,7.386h-4.626c-1.768-2.64-3.799-5.116-6.07-7.387
		c-19.095-19.095-50.164-19.095-69.259,0l-4.341,4.34c-2.328,2.328-2.328,6.103,0,8.431c2.329,2.328,6.104,2.328,8.432,0l4.34-4.34
		c14.086-14.086,36.782-14.43,51.297-1.045H226.98c-4.019,0-7.782,1.111-11.003,3.039c-0.994-0.122-1.993-0.186-2.992-0.186
		c-6.51,0-12.634,2.537-17.24,7.142l-25.106,25.098c-4.605,4.607-7.142,10.732-7.142,17.249c0,3.731,0.859,7.381,2.479,10.691
		c-0.049,0.59-0.081,1.186-0.081,1.789v17.342c-1.475-1.093-2.878-2.302-4.202-3.626c-14.446-14.445-14.446-37.951,0-52.396
		l3.903-3.903c2.329-2.328,2.329-6.104,0-8.432c-2.329-2.328-6.104-2.329-8.431,0l-3.904,3.903
		c-19.095,19.095-19.095,50.165,0,69.259c3.748,3.748,7.989,6.8,12.635,9.128v8.328h-6.55c-19.013,0-34.481,15.468-34.481,34.481
		v12.45c-19.572,9.825-36.179,24.662-48.188,43.096c-13.033,20-19.927,43.24-19.947,67.211c0,0.036-0.003,0.07-0.003,0.106h0.001
		V336c0,68.099,55.401,123.5,123.5,123.5c27.485,0,54.216-9.206,75.816-26.011c20.927,16.292,47.212,26.011,75.727,26.011
		c68.037,0,123.399-55.303,123.498-123.318C455.27,336.121,455.273,336.062,455.273,335.999z M352.654,190.579
		c12.438,0,22.558,10.119,22.558,22.557v16.19c0,2.321,1.348,4.432,3.453,5.408c19.044,8.833,35.181,22.823,46.669,40.455
		c11.785,18.09,18.014,39.118,18.014,60.811c0,0.02-0.001,0.039-0.001,0.061c-0.033,8.2-6.712,14.862-14.92,14.862
		c-8.229,0-14.924-6.695-14.924-14.924H413.5c-0.002-45.067-36.663-81.732-81.727-81.732c-38.047,0-70.104,26.129-79.17,61.385
		c-4.702-4.047-10.811-6.5-17.487-6.5c-4.458,0-8.663,1.099-12.367,3.028c2.853-13.112,8.059-25.631,15.459-36.99
		c11.488-17.634,27.626-31.623,46.669-40.455c2.104-0.977,3.453-3.087,3.453-5.409v-16.19c0-9.658,6.131-17.999,14.787-21.181v5.137
		c0,11.852,9.643,21.495,21.495,21.495c11.852,0,21.494-9.643,21.494-21.495v-6.513H352.654z M281.026,383.884
		c-6.254-6.622-11.228-14.466-14.524-23.127c3.195,1.345,6.703,2.09,10.383,2.09c4.449,0,8.644-1.094,12.342-3.016
		C287.416,368.135,284.67,376.212,281.026,383.884z M291.803,336.111c-0.062,8.176-6.727,14.812-14.918,14.812
		c-8.216,0-14.9-6.673-14.923-14.884c0-0.012,0-0.024,0-0.037c0,0,0-0.001,0-0.002h0.001c0-0.014,0-0.026,0-0.04
		c0.012-18.5,7.258-35.339,19.056-47.837c7.07,14.874,10.786,31.271,10.786,47.878C291.805,336.037,291.803,336.073,291.803,336.111
		L291.803,336.111z M110.419,335.999h0.003c0-0.027-0.001-0.055-0.002-0.081c0.045-38.455,31.343-69.727,69.808-69.727
		c14.989,0,29.546,4.844,41.506,13.699c-8.788,17.201-13.409,36.249-13.458,55.792c-0.001,0.106-0.008,0.21-0.008,0.316h0.002V336
		c0,20.182,4.867,39.249,13.488,56.09c-11.967,8.868-26.534,13.719-41.531,13.719C141.734,405.809,110.419,374.493,110.419,335.999
		C110.419,336,110.419,336,110.419,335.999L110.419,335.999z M208.883,179.547v-8.738c5.047-2.388,9.625-5.599,13.634-9.607
		l25.093-25.094c3.343-3.338,6.158-7.116,8.389-11.208c2.229,4.092,5.044,7.87,8.385,11.206l25.098,25.098
		c4.008,4.009,8.587,7.219,13.635,9.607v8.738c-15.356,3.547-26.712,17.347-26.712,33.589v12.45
		c-7.24,3.635-14.073,7.96-20.42,12.895c-6.371-4.956-13.198-9.283-20.393-12.895v-12.449
		C235.593,196.893,224.239,183.094,208.883,179.547z M230.233,118.714c0.478-0.478,0.928-0.981,1.363-1.496h14.937
		c-1.811,3.859-4.289,7.397-7.351,10.454l-25.096,25.097c-1.615,1.616-3.358,3.052-5.203,4.324v-17.021L230.233,118.714z
		 M306.516,95.724c0-1.563-0.172-3.086-0.49-4.556c0.639,0.437,1.245,0.931,1.805,1.49l25.098,25.098
		c0.717,0.717,1.322,1.512,1.836,2.357c-3.025-1.628-6.482-2.555-10.152-2.555c-7.367,0-13.878,3.727-17.754,9.393l-12.078-12.084
		C301.738,111.304,306.516,104.064,306.516,95.724z M334.182,139.051v58.042c0,5.276-4.293,9.57-9.57,9.57s-9.57-4.293-9.57-9.57
		v-58.042c0-5.276,4.293-9.57,9.57-9.57S334.182,133.774,334.182,139.051z M280.402,117.219c0.436,0.514,0.885,1.017,1.363,1.495
		l21.351,21.359v17.021c-1.845-1.272-3.587-2.709-5.203-4.324l-25.101-25.1c-3.059-3.054-5.536-6.592-7.347-10.451L280.402,117.219
		L280.402,117.219z M299.014,64.424c9.896,0,19.199,3.854,26.198,10.853l25.097,25.098c6.999,6.999,10.853,16.302,10.853,26.198
		s-3.855,19.2-10.853,26.198c-1.322,1.322-2.726,2.531-4.203,3.625v-17.342c0-0.604-0.031-1.2-0.08-1.792
		c1.617-3.309,2.478-6.958,2.478-10.688c0-6.516-2.537-12.642-7.143-17.249l-25.104-25.103c-4.614-4.603-10.737-7.137-17.242-7.137
		c-0.999,0-1.997,0.064-2.989,0.185c-3.222-1.928-6.983-3.039-11.003-3.039h-11.107C280.773,67.898,289.625,64.424,299.014,64.424
		L299.014,64.424z M226.98,86.154h58.042c5.278,0,9.57,4.293,9.57,9.57s-4.292,9.57-9.57,9.57H226.98c-5.278,0-9.57-4.293-9.57-9.57
		S221.702,86.154,226.98,86.154z M204.176,92.658c0.558-0.558,1.163-1.052,1.799-1.487c-0.318,1.469-0.49,2.991-0.49,4.553
		c0,8.339,4.777,15.579,11.734,19.142l-12.079,12.083c-3.875-5.666-10.386-9.392-17.752-9.392c-3.671,0-7.128,0.927-10.154,2.556
		c0.513-0.845,1.119-1.641,1.836-2.356L204.176,92.658z M196.959,139.051v58.042c0,5.276-4.293,9.57-9.571,9.57
		c-5.277,0-9.57-4.293-9.57-9.57v-58.042c0-5.276,4.293-9.57,9.57-9.57C192.666,129.481,196.959,133.774,196.959,139.051z
		 M86.666,275.189c11.487-17.632,27.625-31.622,46.668-40.455c2.105-0.977,3.453-3.087,3.453-5.408v-16.19
		c0-12.438,10.119-22.557,22.558-22.557h6.55v6.514c0,11.851,9.642,21.494,21.494,21.494c11.853,0,21.495-9.643,21.495-21.494
		v-5.138c8.655,3.183,14.786,11.524,14.786,21.181v16.19c0,2.322,1.348,4.433,3.455,5.408c6.918,3.208,13.492,7.131,19.623,11.692
		c-6.983,6.631-13.208,14.087-18.529,22.254c-0.173,0.264-0.332,0.535-0.502,0.802c-13.79-9.852-30.403-15.217-47.487-15.217
		c-38.044,0-70.102,26.129-79.168,61.385c-4.702-4.046-10.811-6.499-17.486-6.499c-4.458,0-8.663,1.098-12.367,3.029
		C74.059,299.068,79.265,286.55,86.666,275.189L86.666,275.189z M180.228,447.576c-61.523,0-111.576-50.053-111.576-111.576
		c0-0.008,0-0.018,0-0.025c0.013-8.218,6.702-14.898,14.922-14.898c8.213,0,14.896,6.669,14.921,14.874
		c0,0.017-0.001,0.033-0.001,0.05c0,45.067,36.666,81.732,81.733,81.732c17.09,0,33.713-5.372,47.513-15.236
		c5.411,8.436,11.822,16.172,19.059,23.044C227.636,439.792,204.253,447.576,180.228,447.576z M331.771,447.576
		c-61.523,0-111.576-50.053-111.576-111.576c0-0.024,0.001-0.049,0.001-0.072c0.039-8.196,6.716-14.852,14.921-14.852
		c8.22,0,14.908,6.681,14.922,14.898v0.024h-0.001c0,0.04,0.003,0.079,0.003,0.12c0.063,45.011,36.703,81.608,81.732,81.608
		c13.377,0,26.648-3.304,38.377-9.555c2.906-1.549,4.006-5.16,2.458-8.066c-1.548-2.905-5.159-4.006-8.065-2.457
		c-10.01,5.335-21.342,8.155-32.77,8.155c-15.533,0-29.896-5.101-41.506-13.713c8.75-17.15,13.389-36.278,13.455-55.674
		c0.002-0.141,0.01-0.278,0.01-0.419h-0.004c0-19.534-4.652-38.812-13.471-56.087c11.611-8.617,25.979-13.721,41.516-13.721
		c38.488,0,69.803,31.316,69.803,69.811c0,18.229-6.983,35.479-19.665,48.571c-2.291,2.365-2.23,6.14,0.136,8.431
		c2.365,2.291,6.14,2.229,8.43-0.136c10.014-10.338,16.987-22.893,20.47-36.517c4.701,4.043,10.808,6.495,17.48,6.495
		c4.452,0,8.651-1.097,12.353-3.023C429.834,409.938,385.119,447.576,331.771,447.576z"/>
</g>
</svg>
