<?xml version="1.0" encoding="utf-8"?>
<!-- Generator: Adobe Illustrator 16.0.0, SVG Export Plug-In . SVG Version: 6.00 Build 0)  -->
<!DOCTYPE svg PUBLIC "-//W3C//DTD SVG 1.1//EN" "http://www.w3.org/Graphics/SVG/1.1/DTD/svg11.dtd">
<svg version="1.1" id="Outline" xmlns="http://www.w3.org/2000/svg" xmlns:xlink="http://www.w3.org/1999/xlink" x="0px" y="0px"
	 width="512px" height="512px" viewBox="0 0 512 512" enable-background="new 0 0 512 512" xml:space="preserve">
<g opacity="0.2">
	<g>
		<g>
			<path fill="#FFFFFF" d="M256,329.076c-18.315,0-33.216,14.9-33.216,33.216c0,10.384,5.009,20.202,13.286,26.434v46.643h39.859
				v-46.643c8.278-6.238,13.286-16.05,13.286-26.434C289.216,343.977,274.315,329.076,256,329.076z M265.945,379.438l-3.302,1.92
				v40.723h-13.287v-40.723l-3.302-1.92c-6.251-3.641-9.984-10.052-9.984-17.146c0-10.987,8.941-19.929,19.93-19.929
				s19.93,8.941,19.93,19.929C275.93,369.387,272.196,375.798,265.945,379.438z"/>
			<path fill="#FFFFFF" d="M136.421,136.421c-18.315,0-33.216,14.901-33.216,33.216s14.901,33.216,33.216,33.216
				c18.315,0,33.216-14.901,33.216-33.216S154.737,136.421,136.421,136.421z M136.421,189.567c-10.988,0-19.93-8.942-19.93-19.93
				c0-10.988,8.942-19.93,19.93-19.93s19.929,8.941,19.929,19.93C156.351,180.625,147.409,189.567,136.421,189.567z"/>
			<path fill="#FFFFFF" d="M375.579,202.854c18.315,0,33.216-14.901,33.216-33.216s-14.9-33.216-33.216-33.216
				c-18.316,0-33.217,14.901-33.217,33.216S357.263,202.854,375.579,202.854z M375.579,149.708c10.987,0,19.93,8.941,19.93,19.93
				c0,10.988-8.942,19.93-19.93,19.93c-10.989,0-19.93-8.942-19.93-19.93C355.649,158.649,364.59,149.708,375.579,149.708z"/>
			<path fill="#FFFFFF" d="M256,136.421c-18.315,0-33.216,14.901-33.216,33.216s14.9,33.216,33.216,33.216
				s33.216-14.901,33.216-33.216S274.315,136.421,256,136.421z M256,189.567c-10.988,0-19.93-8.942-19.93-19.93
				c0-10.988,8.941-19.93,19.93-19.93s19.93,8.941,19.93,19.93C275.93,180.625,266.988,189.567,256,189.567z"/>
			<path fill="#FFFFFF" d="M342.362,289.216c65.935,0,119.579-53.644,119.579-119.578c0-65.934-53.645-119.579-119.579-119.579
				H169.638c-65.935,0-119.579,53.645-119.579,119.579c0,27.291,9.42,53.857,26.573,75.088v83.798
				c0,11.293,9.194,20.481,20.488,20.481c5.727,0,11.227-2.425,15.093-6.643l49-53.459c2.876,0.205,5.7,0.312,8.424,0.312h13.287
				v16.104c-11.712,5.143-19.93,16.814-19.93,30.4v93.005c0,18.315,14.901,33.217,33.216,33.217h119.579
				c18.315,0,33.217-14.901,33.217-33.217V335.72c0-13.586-8.219-25.258-19.93-30.4v-16.104H342.362z M335.719,335.72v93.005
				c0,10.988-8.942,19.93-19.93,19.93H196.21c-10.988,0-19.93-8.941-19.93-19.93V335.72c0-10.988,8.942-19.931,19.93-19.931h119.579
				C326.776,315.789,335.719,324.731,335.719,335.72z M256,236.07c-25.636,0-46.503,20.859-46.503,46.503v19.93H196.21v-19.93
				c0-32.964,26.819-59.789,59.79-59.789c32.97,0,59.789,26.825,59.789,59.789v19.93h-13.287v-19.93
				C302.502,256.93,281.637,236.07,256,236.07z M289.216,289.216v13.287h-66.432v-13.287H289.216z M223.455,275.93
				c3.089-15.14,16.502-26.573,32.545-26.573c16.043,0,29.456,11.433,32.545,26.573H223.455z M328.737,275.93
				c-3.369-37.188-34.685-66.433-72.737-66.433s-69.369,29.244-72.737,66.433h-13.625c-3.389,0-6.81-0.173-10.47-0.531l-3.295-0.326
				l-53.452,58.309c-1.355,1.488-3.288,2.339-5.301,2.339c-3.973,0-7.201-3.229-7.201-7.195V239.91l-1.562-1.854
				c-16.13-19.139-25.012-43.44-25.012-68.419c0-58.607,47.685-106.292,106.292-106.292h172.725
				c58.606,0,106.292,47.686,106.292,106.292S400.969,275.93,342.362,275.93H328.737z"/>
		</g>
	</g>
</g>
</svg>
