<?xml version="1.0" encoding="utf-8"?>
<!-- Generator: Adobe Illustrator 16.0.0, SVG Export Plug-In . SVG Version: 6.00 Build 0)  -->
<!DOCTYPE svg PUBLIC "-//W3C//DTD SVG 1.1//EN" "http://www.w3.org/Graphics/SVG/1.1/DTD/svg11.dtd">
<svg version="1.1" id="Capa_1" xmlns="http://www.w3.org/2000/svg" xmlns:xlink="http://www.w3.org/1999/xlink" x="0px" y="0px"
	 width="512px" height="512px" viewBox="0 0 512 512" enable-background="new 0 0 512 512" xml:space="preserve">
<g opacity="0.2">
	<g>
		<path fill="#FFFFFF" d="M418.988,93.011C375.453,49.477,317.568,25.5,256,25.5c-56.408,0-110.693,20.588-152.856,57.971
			c-2.792,2.474-3.047,6.742-0.573,9.534c2.474,2.791,6.742,3.047,9.533,0.573C151.795,58.386,202.897,39.006,256,39.006
			c119.65,0,216.994,97.343,216.994,216.994c0,119.65-97.344,216.994-216.994,216.994C136.349,472.994,39.006,375.65,39.006,256
			c0-53.103,19.38-104.205,54.571-143.896c2.473-2.791,2.217-7.059-0.574-9.533c-2.792-2.474-7.059-2.218-9.533,0.573
			C46.088,145.307,25.5,199.592,25.5,256c0,61.568,23.977,119.453,67.511,162.988C136.547,462.523,194.432,486.5,256,486.5
			s119.453-23.977,162.988-67.512S486.5,317.568,486.5,256S462.523,136.547,418.988,93.011z"/>
		<path fill="#FFFFFF" d="M114.187,123.76c-2.813-2.45-7.079-2.155-9.527,0.658c-31.809,36.533-49.327,83.263-49.327,131.583
			c0.001,45.385,14.789,88.203,42.763,123.826c2.514,3.203,6.286,5.18,10.348,5.422c0.283,0.019,0.567,0.025,0.849,0.025
			c3.756,0,7.378-1.49,10.05-4.16l26.341-26.342c2.322,5.2,5.09,10.161,8.259,14.828l-23.056,23.058
			c-2.871,2.871-4.378,6.844-4.135,10.897c0.243,4.062,2.219,7.834,5.421,10.348c35.623,27.976,78.442,42.763,123.826,42.764
			c110.648,0,200.669-90.021,200.669-200.669c-0.001-45.384-14.788-88.203-42.764-123.826c-2.514-3.203-6.286-5.179-10.348-5.421
			c-4.066-0.251-8.026,1.264-10.897,4.135l-32.777,32.777c-4.523-2.646-9.665-4.007-14.942-3.91
			c-1.609,0.031-3.186,0.201-4.724,0.488l40.898-40.898c2.869-2.871,4.379-6.845,4.135-10.898
			c-0.242-4.062-2.219-7.833-5.422-10.347C344.203,70.123,301.385,55.335,256,55.334c-48.319,0-95.05,17.519-131.582,49.327
			c-2.813,2.45-3.107,6.714-0.658,9.527c2.448,2.812,6.714,3.106,9.527,0.658C167.361,85.179,210.941,68.839,256,68.839
			c42.33,0,82.264,13.791,115.485,39.879c0.174,0.136,0.27,0.317,0.281,0.534c0.02,0.317-0.149,0.485-0.205,0.541l-41.687,41.686
			v-7.351c0-16.061-13.066-29.128-29.127-29.128c-6.326,0-12.183,2.033-16.965,5.472c-3.719-11.804-14.768-20.388-27.785-20.388
			c-16.061,0-29.127,13.067-29.127,29.128v5.268c-4.518-2.884-9.876-4.563-15.623-4.563c-16.062,0-29.127,13.066-29.127,29.127
			v50.057c-4.376-2.811-9.538-4.492-15.062-4.597c-7.748-0.145-15.093,2.812-20.717,8.33c-5.701,5.594-8.971,13.356-8.971,21.297
			v81.537c0,8.649,1.153,17.032,3.302,25.012l-30.885,30.885c-0.055,0.057-0.219,0.217-0.54,0.206
			c-0.217-0.014-0.397-0.108-0.534-0.281c-26.089-33.222-39.878-73.155-39.879-115.486c0-45.059,16.338-88.639,46.007-122.713
			C117.294,130.475,117,126.209,114.187,123.76L114.187,123.76z M402.209,140.437c0.056-0.056,0.227-0.226,0.541-0.205
			c0.216,0.014,0.396,0.108,0.533,0.281c26.089,33.222,39.879,73.156,39.879,115.486c0,103.202-83.96,187.163-187.162,187.163
			c-42.33-0.001-82.264-13.791-115.486-39.88c-0.172-0.136-0.268-0.317-0.281-0.533c-0.019-0.317,0.149-0.485,0.206-0.542
			l21.917-21.918c17.621,19.417,43.046,31.628,71.271,31.628h44.749c53.073,0,96.251-43.178,96.251-96.252V189.38
			c0-5.827-1.766-11.555-4.957-16.403L402.209,140.437z M150.879,234.129c0-4.337,1.794-8.586,4.924-11.656
			c3.015-2.957,6.886-4.527,11.003-4.466c8.445,0.161,15.317,7.167,15.317,15.619v37.708c0,7.258,5.416,13.324,12.598,14.113
			c26.833,2.944,47.067,25.555,47.067,52.595c0,3.729,3.023,6.753,6.753,6.753c3.73,0,6.753-3.023,6.753-6.753
			c0-33.941-25.408-62.325-59.101-66.02c-0.317-0.035-0.565-0.338-0.565-0.689v-37.708v-74.583c0-8.613,7.008-15.622,15.622-15.622
			c8.614,0,15.623,7.008,15.623,15.622v89.499c0,3.73,3.022,6.753,6.753,6.753s6.753-3.022,6.753-6.753v-119.33
			c0-8.614,7.008-15.623,15.622-15.623s15.622,7.008,15.622,15.623v119.331c0,3.73,3.022,6.753,6.753,6.753s6.753-3.022,6.753-6.753
			V144.126c0-8.613,7.007-15.622,15.622-15.622c8.613,0,15.622,7.008,15.622,15.622v23.65v0.009V256
			c0,3.729,3.022,6.753,6.753,6.753s6.753-3.023,6.753-6.753v-67.124c0-8.453,6.871-15.459,15.317-15.619
			c4.086-0.072,7.988,1.509,11.003,4.467c3.129,3.07,4.924,7.319,4.924,11.655v126.286c0,45.627-37.121,82.746-82.745,82.746
			h-44.753c-45.626,0-82.746-37.12-82.746-82.746V234.129z"/>
	</g>
</g>
</svg>
