<?xml version="1.0" encoding="utf-8"?>
<!-- Generator: Adobe Illustrator 16.0.0, SVG Export Plug-In . SVG Version: 6.00 Build 0)  -->
<!DOCTYPE svg PUBLIC "-//W3C//DTD SVG 1.1//EN" "http://www.w3.org/Graphics/SVG/1.1/DTD/svg11.dtd">
<svg version="1.1" id="Capa_1" xmlns="http://www.w3.org/2000/svg" xmlns:xlink="http://www.w3.org/1999/xlink" x="0px" y="0px"
	 width="512px" height="512px" viewBox="0 0 512 512" enable-background="new 0 0 512 512" xml:space="preserve">
<g opacity="0.2">
	<path fill="#FFFFFF" d="M414.039,97.962C371.825,55.748,315.699,32.5,256,32.5c-42.226,0-83.344,11.834-118.911,34.226
		l7.683,12.202C178.035,57.988,216.496,46.919,256,46.919c55.847,0,108.352,21.748,147.843,61.238
		c39.489,39.49,61.239,91.996,61.239,147.842s-21.749,108.352-61.239,147.843c-39.491,39.489-91.996,61.238-147.843,61.238
		s-108.351-21.749-147.843-61.239C68.667,364.352,46.919,311.847,46.919,256c0-33.553,8.135-66.907,23.527-96.453
		c14.902-28.605,36.602-53.773,62.753-72.785L124.723,75.1c-27.948,20.315-51.138,47.212-67.063,77.785
		C41.2,184.48,32.5,220.137,32.5,256c0,59.699,23.248,115.825,65.462,158.038C140.176,456.251,196.301,479.5,256,479.5
		c59.699,0,115.825-23.248,158.039-65.462C456.251,371.823,479.5,315.699,479.5,256C479.5,196.301,456.252,140.175,414.039,97.962
		L414.039,97.962z"/>
	<path fill="#FFFFFF" d="M368.634,356.417l24.233,24.234l5.058-6.041c27.81-33.224,43.124-75.347,43.124-118.609
		c0-102.037-83.013-185.048-185.048-185.048c-43.264,0-85.387,15.315-118.609,43.125l-6.041,5.057l60.365,60.365
		c-0.245,1.099-0.419,2.223-0.521,3.367c-3.62-1.866-7.721-2.927-12.067-2.927h-19.226c-0.564,0-1.12,0.023-1.674,0.058
		l-43.572-43.572l-5.011,6.469C84.331,175.576,70.952,214.688,70.952,256c0,41.095,13.242,80.034,38.297,112.611
		c24.254,31.537,58.561,54.809,96.601,65.532l3.911-13.879c-35.07-9.886-66.708-31.352-89.083-60.444
		C97.58,329.787,85.371,293.887,85.371,256c0-35.342,10.621-68.936,30.797-97.669l27.333,27.333
		c-6.107,4.847-10.036,12.325-10.036,20.71v67.291c0,19.877,16.17,36.047,36.049,36.047c11.578,0,21.892-5.491,28.491-14.001
		c4.471,6.124,10.819,10.79,18.196,13.145c-2.418,5.633-3.68,11.715-3.68,17.98v40.855h113.007l28.141,28.141
		c-28.734,20.177-62.327,30.798-97.669,30.798c-10.913,0-21.836-1.042-32.467-3.099l-2.738,14.158
		c11.53,2.229,23.374,3.36,35.204,3.36c41.312,0,80.424-13.38,113.105-38.692l6.471-5.011l-29.812-29.812
		C354.738,366.722,362.767,362.606,368.634,356.417L368.634,356.417z M256,85.371c94.086,0,170.63,76.543,170.63,170.629
		c0,37.255-12.317,73.591-34.837,103.184l-15.376-15.376c1.368-3.803,2.118-7.897,2.118-12.166v-50.408v-5.526v-63.206h-14.42
		v63.206v5.526c0,11.928-9.701,21.629-21.629,21.629c-11.926,0-21.628-9.701-21.628-21.629V170.746
		c0-6.626,5.39-12.017,12.016-12.017H352.1c6.627,0,12.017,5.39,12.017,12.017v27.576h14.421v-27.578
		c0-14.577-11.859-26.436-26.437-26.436h-19.226c-7.57,0-14.401,3.203-19.225,8.321c-4.824-5.118-11.657-8.321-19.227-8.321h-19.225
		c-11.672,0-21.594,7.607-25.088,18.121c-3.925-2.311-8.49-3.641-13.363-3.641h-19.226c-7.208,0-13.749,2.903-18.522,7.598
		l-46.18-46.18C182.409,97.688,218.746,85.371,256,85.371L256,85.371z M306.438,281.233c0,11.928-9.702,21.629-21.629,21.629
		s-21.628-9.701-21.628-21.629v-6.729v-89.279v-14.48c0-6.625,5.39-12.016,12.017-12.016h19.225c6.627,0,12.018,5.39,12.018,12.016
		v110.488H306.438z M169.514,295.292c-11.927,0-21.628-9.7-21.628-21.628v-67.29c0-6.627,5.39-12.017,12.016-12.017h19.226
		c6.225,0,11.358,4.759,11.957,10.83v69.318c0,0.173,0.011,0.343,0.013,0.517C190.393,286.318,180.983,295.292,169.514,295.292z
		 M205.522,275.269c0.022-0.533,0.04-1.067,0.04-1.604v-67.291c0-0.57-0.023-1.133-0.061-1.694v-19.454
		c0-6.626,5.391-12.017,12.017-12.017h19.226c6.626,0,12.017,5.39,12.017,12.017v89.279c0,11.928-9.703,21.629-21.629,21.629
		C215.46,296.134,205.926,286.842,205.522,275.269z M342.486,353.271H226.941v-26.437c0-5.933,1.652-11.619,4.773-16.582
		c8.553-1.092,16.178-5.185,21.779-11.195c6.215,10.874,17.919,18.226,31.315,18.226c11.779,0,22.257-5.681,28.839-14.444
		c6.582,8.764,17.06,14.444,28.838,14.444c8.109,0,15.601-2.692,21.629-7.23v21.59C364.115,343.568,354.412,353.271,342.486,353.271
		z"/>
</g>
</svg>
