<?xml version="1.0" encoding="utf-8"?>
<!-- Generator: Adobe Illustrator 16.0.0, SVG Export Plug-In . SVG Version: 6.00 Build 0)  -->
<!DOCTYPE svg PUBLIC "-//W3C//DTD SVG 1.1//EN" "http://www.w3.org/Graphics/SVG/1.1/DTD/svg11.dtd">
<svg version="1.1" id="Capa_1" xmlns="http://www.w3.org/2000/svg" xmlns:xlink="http://www.w3.org/1999/xlink" x="0px" y="0px"
	 width="512px" height="512px" viewBox="0 0 512 512" enable-background="new 0 0 512 512" xml:space="preserve">
<g opacity="0.2">
	<g>
		<path fill="#2C3E50" d="M355.351,461.5c-10.086,0-19.66-4.874-25.608-13.035c-1.463-2.007-3.634-3.157-5.954-3.157h-23.083
			c-4.211,0-7.983-2.177-10.089-5.825c-2.105-3.647-2.106-8.002,0-11.65l7.843-13.584c4.609-7.982,7.046-17.075,7.046-26.294v-4.179
			l-15.361-2.77c-10.063-1.815-16.775-11.479-14.961-21.543c1.815-10.062,11.479-16.777,21.542-14.96l8.779,1.582v-9.465
			c0-27.485,22.361-49.846,49.847-49.846s49.847,22.361,49.847,49.846v9.465l8.778-1.582c10.068-1.815,19.729,4.898,21.542,14.96
			c0.88,4.877-0.192,9.801-3.018,13.87s-7.066,6.795-11.942,7.673l-15.361,2.77v4.179c0,9.218,2.436,18.31,7.045,26.294
			l7.844,13.584c2.105,3.646,2.105,8.003,0,11.65s-5.878,5.825-10.09,5.825h-23.083c-2.32,0-4.491,1.15-5.953,3.157
			C375.011,456.626,365.437,461.5,355.351,461.5z M301.401,433.256h22.388c6.124,0,11.99,3.031,15.692,8.11
			c3.688,5.06,9.622,8.083,15.869,8.083c6.249,0,12.183-3.022,15.871-8.083c3.702-5.079,9.568-8.11,15.693-8.11h22.386
			l-7.494-12.983c-5.665-9.813-8.66-20.989-8.66-32.319v-9.215c0-2.916,2.088-5.413,4.957-5.931l20.316-3.663
			c3.524-0.636,5.875-4.019,5.239-7.543c-0.635-3.525-4.022-5.874-7.544-5.238l-15.874,2.861c-1.757,0.318-3.563-0.16-4.933-1.306
			c-1.371-1.145-2.162-2.839-2.162-4.623v-16.675c0-20.84-16.954-37.795-37.796-37.795c-20.839,0-37.794,16.955-37.794,37.795
			v16.675c0,1.784-0.792,3.479-2.162,4.623c-1.369,1.144-3.178,1.623-4.934,1.306l-15.874-2.861
			c-3.524-0.636-6.909,1.714-7.544,5.238s1.716,6.907,5.239,7.543l20.316,3.663c2.869,0.518,4.956,3.015,4.956,5.931v9.215
			c0,11.331-2.993,22.508-8.659,32.32L301.401,433.256z"/>
	</g>
	<g>
		<path fill="#2C3E50" d="M197.411,237.999h-33.13c-4.652,0-8.436-3.785-8.436-8.437v-27.438c0-3.328,2.698-6.026,6.027-6.026
			c3.327,0,6.025,2.697,6.025,6.026v23.823h25.899v-61.706c0-4.209,3.425-7.632,7.633-7.632h12.618v-25.901h-12.618
			c-4.209,0-7.633-3.424-7.633-7.632v-8.456c0-14.429,11.738-26.167,26.168-26.167h5.709v-25.9h-5.709
			c-28.71,0-52.068,23.357-52.068,52.069v8.455c0,4.208-3.424,7.632-7.632,7.632h-12.619v25.899h12.619
			c4.208,0,7.632,3.425,7.632,7.632v7.54c0,3.328-2.698,6.026-6.025,6.026c-3.329,0-6.027-2.697-6.027-6.026v-3.121H144.03
			c-4.652,0-8.436-3.784-8.436-8.436v-33.13c0-4.652,3.785-8.436,8.436-8.436h11.814v-4.036c0-35.355,28.764-64.12,64.12-64.12
			h9.324c4.652,0,8.436,3.784,8.436,8.436v33.131c0,4.652-3.785,8.436-8.436,8.436h-9.325c-7.784,0-14.116,6.333-14.116,14.116
			v4.037h11.815c4.652,0,8.436,3.784,8.436,8.436v33.13c0,4.652-3.785,8.436-8.436,8.436h-11.815v60.903
			C205.847,234.214,202.062,237.999,197.411,237.999L197.411,237.999z"/>
	</g>
	<g>
		<path fill="#2C3E50" d="M374.405,268.518h-91.82c-18.587,0-33.708-15.121-33.708-33.708v-91.819
			c0-18.586,15.121-33.708,33.708-33.708h10.077c3.327,0,6.025,2.697,6.025,6.026s-2.698,6.026-6.025,6.026h-10.077
			c-11.941,0-21.655,9.715-21.655,21.656v91.819c0,11.942,9.714,21.656,21.655,21.656h91.819c11.941,0,21.655-9.715,21.655-21.656
			v-91.819c0-11.941-9.714-21.656-21.655-21.656h-51.329c-3.328,0-6.026-2.697-6.026-6.026s2.698-6.026,6.026-6.026h51.329
			c18.587,0,33.708,15.121,33.708,33.708v91.819C408.112,253.396,392.992,268.518,374.405,268.518z"/>
	</g>
	<g>
		<path fill="#2C3E50" d="M328.495,224.167c-19.447,0-35.269-15.821-35.269-35.267c0-19.447,15.821-35.268,35.269-35.268
			s35.269,15.821,35.269,35.268C363.764,208.346,347.942,224.167,328.495,224.167z M328.495,165.685
			c-12.801,0-23.216,10.415-23.216,23.216c0,12.801,10.415,23.215,23.216,23.215s23.216-10.414,23.216-23.215
			C351.711,176.099,341.296,165.685,328.495,165.685z"/>
	</g>
	<g>
		<circle fill="#2C3E50" cx="369.852" cy="147.543" r="8.517"/>
	</g>
	<g>
		<path fill="#2C3E50" d="M193.29,404.005c-34.722,0-65.353-23.024-75.058-56.194c-10.423-5.444-18.263-14.64-21.977-25.714
			c-8.253-0.829-14.198-4.63-17.188-7.009c-2.086-1.66-3.143-4.231-2.829-6.878c0.314-2.645,1.945-4.895,4.362-6.019l0.934-0.435
			c-1.931-2.317-3.283-4.582-4.195-6.412c-1.189-2.381-1.062-5.153,0.337-7.417c1.401-2.266,3.83-3.619,6.496-3.619h16.191
			c8.181-13.619,22.823-21.97,38.837-21.97c22.135,0,40.707,15.901,44.562,37.136c12.995-2.651,24.678-9.05,34.039-18.691
			c3.126-3.218,5.93-6.764,8.337-10.54c1.613-2.53,4.473-4.028,7.476-3.879c3.017,0.137,5.752,1.892,7.137,4.578
			c3.86,7.48,6.472,15.507,7.764,23.854c0.509,3.289-1.744,6.368-5.033,6.877c-3.289,0.506-6.368-1.744-6.877-5.033
			c-0.778-5.03-2.123-9.922-4.012-14.605c-1.903,2.502-3.958,4.892-6.146,7.145c-12.345,12.713-28.818,20.92-46.388,23.105
			c-1.87,0.231-3.773-0.327-5.221-1.539c-1.452-1.217-2.342-3-2.441-4.892c-0.936-17.643-15.517-31.463-33.197-31.463
			c-12.418,0-23.714,6.845-29.482,17.862c-1.324,2.533-3.917,4.107-6.764,4.107h-9.898c0.509,0.449,1.059,0.889,1.652,1.312
			c1.973,1.402,3.062,3.774,2.841,6.188c-0.219,2.373-1.676,4.475-3.814,5.515c1.728,0.509,3.691,0.812,5.867,0.832h0.033
			c3.466,0,6.494,2.361,7.367,5.754c2.454,9.538,8.977,17.449,17.895,21.709c2.235,1.065,3.888,3.045,4.532,5.432
			c7.77,28.764,34.031,48.853,63.864,48.853c21.745,0,41.76-10.546,54.063-28.014c-7.877,1.628-16.016,2.052-24.262,1.162
			c-2.769-0.3-5.073-2.11-6.016-4.728c-0.94-2.608-0.328-5.466,1.597-7.462c0.006-0.008,0.013-0.015,0.018-0.019
			c7.603-7.832,13.182-17.455,16.151-27.85c0.913-3.199,4.25-5.051,7.449-4.139c3.2,0.914,5.053,4.25,4.139,7.449
			c-2.578,9.023-6.815,17.555-12.43,25.105c6.299-0.237,12.49-1.361,18.439-3.35c3.294-1.103,6.878-0.106,9.127,2.533
			c2.241,2.629,2.651,6.309,1.049,9.372C249.06,387.915,222.496,404.005,193.29,404.005L193.29,404.005z"/>
	</g>
</g>
</svg>
